<?xml version="1.0" encoding="UTF-8"?><svg version="1.1" viewBox="0 0 66 66" xmlns="http://www.w3.org/2000/svg" xmlns:xlink="http://www.w3.org/1999/xlink"><!--Generated by IJSVG (https://github.com/iconjar/IJSVG)--><path d="M1,33l3.6593e-13,4.83187e-06c2.66857e-06,17.6731 14.3269,32 32,32c17.6731,-2.66857e-06 32,-14.3269 32,-32c-2.66857e-06,-17.6731 -14.3269,-32 -32,-32l-3.81596e-07,6.75016e-14c-17.6731,2.87932e-06 -32,14.3269 -32,32Z" fill="#000"></path><path fill="none" stroke="#FFF" stroke-width="2" d="M18.48,45.18c-0.817374,0 -1.48,-0.662626 -1.48,-1.48v-21.22c0,-0.817374 0.662626,-1.48 1.48,-1.48h29.04c0.817374,0 1.48,0.662626 1.48,1.48v21.22c0,0.817374 -0.662626,1.48 -1.48,1.48Z"></path><g stroke-width="2" stroke="#FFF" fill="none" stroke-linejoin="round"><path d="M48.44,21.83l-10.91,11.71l8.00814e-08,-8.38778e-08c-2.39125,2.50461 -6.36013,2.59651 -8.86474,0.205257c-0.0699938,-0.0668258 -0.138431,-0.135263 -0.205257,-0.205257l-10.9,-11.7"></path><path d="M39.19,31.75l8.96,12.76"></path><path d="M26.98,31.88l-9.28,12.63"></path></g></svg>