<?xml version="1.0" encoding="UTF-8"?><svg version="1.1" viewBox="0 0 512 512" xmlns="http://www.w3.org/2000/svg" xmlns:xlink="http://www.w3.org/1999/xlink"><!--Generated by IJSVG (https://github.com/iconjar/IJSVG)--><path d="M437.017,74.985c-46.352,-46.356 -110.285,-74.985 -181.017,-74.985c-70.732,0 -134.662,28.629 -181.014,74.985c-46.352,46.356 -74.986,110.283 -74.986,181.015c0,70.732 28.634,134.661 74.986,181.014c46.352,46.354 110.282,74.986 181.014,74.986c70.732,0 134.665,-28.632 181.017,-74.986c46.351,-46.353 74.983,-110.282 74.983,-181.014c0,-70.732 -28.632,-134.659 -74.983,-181.015Z" fill="#000"></path><path fill="#FFF" fill-rule="evenodd" d="M275.559,203.692v-20.978c0,-10.064 6.664,-12.473 11.491,-12.473c4.675,0 29.338,0 29.338,0v-44.795h-40.4c-44.933,0 -54.995,33.168 -54.995,54.716v23.529h-26.087v31.61v20.699h26.365c0,59.393 0,130.695 0,130.695h52.309c0,0 0,-72.295 0,-130.695h38.693l1.707,-20.554l3.12,-31.754h-41.541Z"></path></svg>