<?xml version="1.0" encoding="UTF-8"?><svg version="1.1" viewBox="0 0 512 512" xmlns="http://www.w3.org/2000/svg" xmlns:xlink="http://www.w3.org/1999/xlink"><!--Generated by IJSVG (https://github.com/iconjar/IJSVG)--><path d="M437.013,74.985c-46.21,-46.356 -110.284,-74.985 -181.015,-74.985c-70.591,0 -134.655,28.629 -181.01,74.985c-46.354,46.356 -74.988,110.283 -74.988,181.015c0,70.732 28.634,134.661 74.988,181.014c46.355,46.354 110.419,74.986 181.01,74.986c70.731,0 134.805,-28.632 181.015,-74.986c46.356,-46.353 74.987,-110.282 74.987,-181.014c0,-70.732 -28.631,-134.659 -74.987,-181.015Z" fill="#000"></path><path fill="#FFF" fill-rule="evenodd" d="M190.512,256c0,-36.146 29.343,-65.631 65.486,-65.631c36.29,0 65.633,29.484 65.633,65.631c0,36.285 -29.343,65.631 -65.633,65.631c-36.144,0 -65.486,-29.346 -65.486,-65.631v0Zm133.249,-128.283h-135.375c-33.311,1.42109e-14 -60.664,27.213 -60.664,60.671v135.371c0,33.306 27.354,60.665 60.664,60.665h135.375c33.453,0 60.665,-27.359 60.665,-60.665v-135.371c0,-33.458 -27.212,-60.671 -60.665,-60.671v0Zm-135.375,15.169h135.375c25.092,0 45.499,20.407 45.499,45.502v135.371c0,25.087 -20.407,45.496 -45.499,45.496h-135.375c-25.092,0 -45.498,-20.409 -45.498,-45.496v-135.371c0,-25.095 20.406,-45.502 45.498,-45.502v0Zm148.835,19.135c-7.371,0 -13.318,5.952 -13.318,13.321c0,7.373 5.947,13.326 13.318,13.326c7.371,0 13.328,-5.953 13.328,-13.326c0,-7.369 -5.957,-13.321 -13.328,-13.321v0Zm1.56,93.979c0,-45.646 -36.992,-82.781 -82.783,-82.781c-45.641,0 -82.778,37.136 -82.778,82.781c0,45.786 37.138,82.783 82.778,82.783c45.791,0 82.783,-36.997 82.783,-82.783v0Z"></path></svg>