<?xml version="1.0" encoding="UTF-8"?><svg version="1.1" viewBox="0 0 512 512" xmlns="http://www.w3.org/2000/svg" xmlns:xlink="http://www.w3.org/1999/xlink"><!--Generated by IJSVG (https://github.com/iconjar/IJSVG)--><path d="M437.018,74.985c-46.357,-46.354 -110.284,-74.985 -181.015,-74.985c-70.737,0 -134.663,28.631 -181.01,74.985c-46.362,46.352 -74.993,110.281 -74.993,181.013c0,70.734 28.631,134.663 74.993,181.012c46.347,46.357 110.273,74.99 181.01,74.99c70.731,0 134.658,-28.633 181.015,-74.99c46.351,-46.349 74.982,-110.278 74.982,-181.012c0,-70.732 -28.631,-134.661 -74.982,-181.013Z" fill="#000"></path><path fill="#FFF" fill-rule="evenodd" d="M140.475,258.408v113.116h53.864v-122.33v-31.751h-53.864v40.965Zm229.779,6.379c-3.549,-29.201 -16.867,-47.344 -56.277,-47.344c-23.107,0 -38.698,8.507 -45.216,20.839h-0.712v-20.839h-42.954v29.623v124.458h44.938v-76.399c0,-20.134 3.969,-39.549 28.641,-39.549c24.8,0 26.637,22.961 26.637,40.962v74.986h46.216v-84.624c-0.001,-7.938 -0.429,-15.307 -1.273,-22.113v0Zm-202.845,-124.315c-14.884,0 -26.935,12.049 -26.935,26.935c0,14.886 12.051,26.933 26.935,26.933c14.883,0 26.93,-12.047 26.93,-26.933c0,-14.886 -12.047,-26.935 -26.93,-26.935v0Z"></path></svg>